<svg width="15" height="15" viewBox="0 0 15 15" fill="none" xmlns="http://www.w3.org/2000/svg">
<path d="M1 11.405V13.3512C1 13.7405 1.2595 14 1.64876 14H4.2438V12.0537H6.19007V10.1074H7.48759L8.39586 9.19918C9.29753 9.51327 10.2791 9.51207 11.18 9.19578C12.0809 8.87948 12.8478 8.26681 13.3552 7.45799C13.8626 6.64918 14.0805 5.6921 13.9733 4.74333C13.8661 3.79456 13.44 2.91027 12.7649 2.23512C12.0897 1.55997 11.2054 1.13392 10.2567 1.02669C9.3079 0.919451 8.35082 1.13737 7.54201 1.64479C6.73319 2.15222 6.12052 2.91911 5.80422 3.82001C5.48793 4.7209 5.48673 5.70247 5.80082 6.60414L1 11.405Z" stroke="white" stroke-width="2" stroke-linecap="round" stroke-linejoin="round"/>
<path d="M10.407 4.91737C10.5862 4.91737 10.7314 4.77214 10.7314 4.59299C10.7314 4.41384 10.5862 4.26861 10.407 4.26861C10.2279 4.26861 10.0826 4.41384 10.0826 4.59299C10.0826 4.77214 10.2279 4.91737 10.407 4.91737Z" stroke="white" stroke-width="2" stroke-linecap="round" stroke-linejoin="round"/>
</svg>
